# xmcd
#
# Track frame offsets:
# 150
# 2144
# 27665
# 53354
# 57049
# 76823
# 81532
# 101860
# 102892
# 121574
# 139748
# 159007
# 164661
# 183033
# 204949
# 206806
# 224702
# 227336
#
# Disc length: 3416 seconds
#
# Revision: 0
# Processed by: cddbd v1.4b42PL1 Copyright (c) Steve Scherf et al.
# Submitted via: Audion 2.5.0 (http://www.panic.com/audion/)
#
DISCID=e60d5612
DTITLE=Lil Jon and The Eastside Boyz - Get Crunk Who U Wit Da Album  
DYEAR=1900
DGENRE=
TTITLE0=Album Intro
TTITLE1=Bounce Dat Ass
TTITLE2=Shake Your Booty
TTITLE3=Get Crunk Intro
TTITLE4=Get Crunk
TTITLE5=Who U Wit Intro
TTITLE6=Who U Wit 
TTITLE7=Shawty Freak A Lil Sumtin' Intro 
TTITLE8=Shawty Freak A Lil Sumtin'
TTITLE9=Giddy Up Let's Ride/Giddy Up Let's Ride Outro
TTITLE10=Who U Wit Bass Remix
TTITLE11=Cut Up Intro
TTITLE12=Cut Up
TTITLE13=Y'all Don't Feel Me
TTITLE14=ATL Intro
TTITLE15=ATL
TTITLE16=Sign Off 
TTITLE17=2 Step Drop 
EXTD=
EXTT0=
EXTT1=
EXTT2=
EXTT3=
EXTT4=
EXTT5=
EXTT6=
EXTT7=
EXTT8=
EXTT9=
EXTT10=
EXTT11=
EXTT12=
EXTT13=
EXTT14=
EXTT15=
EXTT16=
EXTT17=
PLAYORDER=
